<!DOCTYPE svg PUBLIC "-//W3C//DTD SVG 1.1//EN" "http://www.w3.org/Graphics/SVG/1.1/DTD/svg11.dtd">
<!-- Uploaded to: SVG Repo, www.svgrepo.com, Transformed by: SVG Repo Mixer Tools -->
<svg width="800px" height="800px" viewBox="0 0 24 24" fill="none" xmlns="http://www.w3.org/2000/svg">
<g id="SVGRepo_bgCarrier" stroke-width="0"/>
<g id="SVGRepo_tracerCarrier" stroke-linecap="round" stroke-linejoin="round"/>
<g id="SVGRepo_iconCarrier"> <path d="M11 21H5.6C5.03995 21 4.75992 21 4.54601 20.891C4.35785 20.7951 4.20487 20.6421 4.10899 20.454C4 20.2401 4 19.96 4 19.4V17.6841C4 17.0484 4 16.7306 4.04798 16.4656C4.27087 15.2344 5.23442 14.2708 6.46558 14.048C6.5425 14.034 6.6237 14.0242 6.71575 14.0171C6.94079 14 7.05331 13.9914 7.20361 14.0026C7.35983 14.0142 7.4472 14.0297 7.59797 14.0722C7.74302 14.1131 8.00429 14.2315 8.52682 14.4682C9.28093 14.8098 10.1183 15 11 15C11.8817 15 12.7191 14.8098 13.4732 14.4682C13.9957 14.2315 14.2569 14.1131 14.4019 14.0722C14.5527 14.0297 14.6399 14.0143 14.7961 14.0026H15M20 18L14 18M15 7C15 9.20914 13.2091 11 11 11C8.79086 11 7 9.20914 7 7C7 4.79086 8.79086 3 11 3C13.2091 3 15 4.79086 15 7Z" stroke="#ffffff" stroke-width="2" stroke-linecap="round" stroke-linejoin="round"/> </g>
</svg>